<svg width="185" height="97" viewBox="0 0 185 97" fill="none" xmlns="http://www.w3.org/2000/svg">
<ellipse cx="78.8879" cy="67.6875" rx="6.88793" ry="6.83036" fill="#7CEFDA"/>
<ellipse cx="95.5" cy="56.0357" rx="8.10345" ry="8.03571" fill="#7CEFDA"/>
<ellipse cx="111.707" cy="67.2857" rx="7.2931" ry="7.23214" fill="#7CEFDA"/>
<ellipse cx="95.0948" cy="80.5447" rx="12.5603" ry="12.4554" fill="#7CEFDA"/>
<path d="M37.32 29.308C37.32 31.588 38.244 32.728 40.092 32.728C41.82 32.728 43.956 31.708 46.5 29.668C49.284 27.46 51.192 25.132 52.224 22.684C53.4 19.924 53.988 17.572 53.988 15.628C53.988 13.684 53.592 12.22 52.8 11.236C52.032 10.252 50.964 9.76 49.596 9.76C49.284 9.76 48.96 9.784 48.624 9.832C48.048 9.976 47.616 10.048 47.328 10.048C47.064 10.048 46.932 9.976 46.932 9.832C46.932 9.616 47.148 9.412 47.58 9.22C48.036 9.028 48.372 8.932 48.588 8.932C48.828 8.932 49.02 8.932 49.164 8.932C49.308 8.932 49.476 8.932 49.668 8.932C51.036 8.932 52.284 9.472 53.412 10.552C54.564 11.632 55.308 13.216 55.644 15.304C55.716 15.808 55.752 16.324 55.752 16.852C55.752 18.628 55.332 20.644 54.492 22.9C53.316 25.876 51.288 28.408 48.408 30.496C45.552 32.584 42.924 33.628 40.524 33.628C38.028 33.628 36.492 32.476 35.916 30.172C35.748 29.572 35.664 28.756 35.664 27.724C35.664 26.692 35.916 25.348 36.42 23.692C35.124 25.852 33.444 28.192 31.38 30.712C30.252 32.056 29.1 33.172 27.924 34.06C26.676 34.996 25.62 35.464 24.756 35.464C23.052 35.464 22.2 34.432 22.2 32.368C22.2 29.944 23.772 25 26.916 17.536C28.884 12.784 29.868 9.22 29.868 6.844C29.868 5.308 29.4 4.252 28.464 3.676C27.552 3.076 26.46 2.776 25.188 2.776C24.636 2.776 24.06 2.836 23.46 2.956C19.212 3.82 15.444 6.112 12.156 9.832C10.524 11.704 9.396 13.504 8.772 15.232C8.148 16.936 7.788 18.208 7.692 19.048C7.62 19.864 7.584 20.548 7.584 21.1C7.584 21.628 7.68 22.24 7.872 22.936C8.088 23.632 8.448 24.28 8.952 24.88C9.888 25.96 11.196 26.5 12.876 26.5C15.66 26.5 17.868 25.048 19.5 22.144C20.34 20.656 20.76 19.312 20.76 18.112C20.76 16.144 19.884 15.16 18.132 15.16C17.844 15.16 17.484 15.196 17.052 15.268C16.62 15.34 16.416 15.292 16.44 15.124C16.464 14.956 16.788 14.776 17.412 14.584C18.036 14.392 18.66 14.296 19.284 14.296C20.532 14.296 21.444 14.776 22.02 15.736C22.38 16.336 22.56 17.044 22.56 17.86C22.56 18.676 22.332 19.624 21.876 20.704C20.652 23.512 18.456 25.576 15.288 26.896C14.448 27.256 13.668 27.436 12.948 27.436C10.596 27.436 8.724 26.596 7.332 24.916C6.348 23.764 5.724 22.276 5.46 20.452C5.412 20.092 5.388 19.72 5.388 19.336C5.388 17.8 5.772 16.144 6.54 14.368C7.332 12.568 8.4 10.9 9.744 9.364C11.088 7.828 12.552 6.544 14.136 5.512C15.72 4.48 17.388 3.616 19.14 2.92C20.964 2.224 22.656 1.876 24.216 1.876C25.776 1.876 27.192 2.116 28.464 2.596C30.768 3.604 31.92 5.536 31.92 8.392C31.92 10.744 31.116 13.744 29.508 17.392C28.404 19.864 27.348 22.516 26.34 25.348C24.9 29.38 24.18 32.008 24.18 33.232C24.18 34.096 24.48 34.528 25.08 34.528C25.392 34.528 25.764 34.384 26.196 34.096C27.492 33.328 28.908 31.876 30.444 29.74C31.98 27.604 33.576 25.12 35.232 22.288C36.888 19.456 38.064 17.56 38.76 16.6C39.456 15.64 40.056 15.16 40.56 15.16C40.68 15.16 40.8 15.184 40.92 15.232C41.232 15.4 41.388 15.724 41.388 16.204C41.388 16.684 41.316 17.116 41.172 17.5C41.052 17.884 40.44 19.42 39.336 22.108C38.232 24.772 37.62 26.536 37.5 27.4C37.38 28.24 37.32 28.876 37.32 29.308ZM62.835 29.38C62.835 30.052 63.075 30.388 63.555 30.388C64.683 30.388 66.279 28.276 68.343 24.052C68.511 23.716 68.655 23.584 68.775 23.656C68.919 23.728 68.991 23.824 68.991 23.944C68.991 24.064 68.847 24.412 68.559 24.988C68.295 25.54 68.019 26.08 67.731 26.608C67.467 27.112 67.071 27.784 66.543 28.624C65.439 30.304 64.263 31.144 63.015 31.144C62.199 31.144 61.551 30.808 61.071 30.136C60.855 29.824 60.747 29.404 60.747 28.876C60.747 28.324 60.867 27.664 61.107 26.896C61.347 26.128 62.007 24.88 63.087 23.152C63.351 22.72 63.483 22.384 63.483 22.144C63.483 21.88 63.279 21.748 62.871 21.748C62.463 21.748 61.683 22.288 60.531 23.368C58.803 24.952 57.123 27.328 55.491 30.496C55.323 30.856 54.879 31.036 54.159 31.036C53.511 31.084 53.103 31.156 52.935 31.252C57.495 21.772 60.795 15.16 62.835 11.416C63.291 10.576 63.687 9.988 64.023 9.652C64.383 9.316 64.803 9.148 65.283 9.148C65.403 9.148 65.655 9.184 66.039 9.256C66.423 9.304 66.711 9.316 66.903 9.292C66.183 10.036 64.887 12.1 63.015 15.484C61.167 18.844 59.391 22.264 57.687 25.744C58.815 24.328 59.823 23.224 60.711 22.432C61.623 21.64 62.727 20.896 64.023 20.2C65.319 19.48 66.267 19.12 66.867 19.12C67.011 19.12 67.143 19.144 67.263 19.192C64.311 24.376 62.835 27.772 62.835 29.38ZM79.3241 21.244C78.8921 21.676 78.2801 22.66 77.4881 24.196C76.6961 25.708 76.2161 26.848 76.0481 27.616C75.9041 28.36 75.8321 28.972 75.8321 29.452C75.8321 29.908 76.0121 30.136 76.3721 30.136C76.8281 30.136 77.3921 29.716 78.0641 28.876C79.0481 27.652 80.0201 26.056 80.9801 24.088C81.0761 23.872 81.1841 23.752 81.3041 23.728C81.4961 23.656 81.5921 23.728 81.5921 23.944C81.5921 24.064 81.5561 24.208 81.4841 24.376C79.2761 28.84 77.4161 31.072 75.9041 31.072C75.2081 31.072 74.6441 30.736 74.2121 30.064C73.9961 29.704 73.8881 29.224 73.8881 28.624C73.8881 28.024 74.0081 27.292 74.2481 26.428C72.3281 29.524 70.6721 31.072 69.2801 31.072C68.8961 31.072 68.5481 30.952 68.2361 30.712C67.5161 30.208 67.1561 29.344 67.1561 28.12C67.1561 25.768 68.1761 23.38 70.2161 20.956C71.3681 19.612 72.7841 18.736 74.4641 18.328C74.9201 18.208 75.3521 18.148 75.7601 18.148C76.8641 18.148 77.8001 18.532 78.5681 19.3C78.8081 19.564 78.8801 19.816 78.7841 20.056C78.6881 20.296 78.4841 20.392 78.1721 20.344C77.9081 19.48 77.3321 19.048 76.4441 19.048C75.4121 19.048 74.1401 19.864 72.6281 21.496C71.7641 22.456 70.9601 23.584 70.2161 24.88C69.2801 26.44 68.8121 27.688 68.8121 28.624C68.8121 29.56 69.1121 30.028 69.7121 30.028C71.1521 30.028 73.0361 27.82 75.3641 23.404C75.8201 22.516 76.2041 21.916 76.5161 21.604C76.8281 21.268 77.2241 21.1 77.7041 21.1C77.8001 21.1 78.0401 21.136 78.4241 21.208C78.8321 21.28 79.1321 21.292 79.3241 21.244ZM80.0661 28.12C80.0661 26.128 81.0261 22.792 82.9461 18.112H81.0741C80.9541 18.112 80.8701 18.052 80.8221 17.932C80.7981 17.788 80.8101 17.656 80.8581 17.536C80.9301 17.392 81.0261 17.32 81.1461 17.32H83.3061C84.1701 15.424 84.9741 13.84 85.7181 12.568C86.4621 11.296 87.1461 10.444 87.7701 10.012C88.3941 9.556 88.8381 9.328 89.1021 9.328C89.3901 9.328 89.5941 9.352 89.7141 9.4C90.2661 9.664 90.5421 10.216 90.5421 11.056C90.5421 11.872 90.2661 12.868 89.7141 14.044C89.1621 15.22 88.6221 16.312 88.0941 17.32H89.8221C89.9421 17.32 90.0141 17.392 90.0381 17.536C90.0861 17.656 90.0741 17.788 90.0021 17.932C89.9541 18.052 89.8701 18.112 89.7501 18.112H87.6621C86.3421 20.344 84.7461 22.324 82.8741 24.052L82.0461 27.724C81.9741 28.036 81.9381 28.348 81.9381 28.66C81.9381 28.948 82.0221 29.248 82.1901 29.56C82.3581 29.872 82.6221 30.028 82.9821 30.028C83.3901 30.028 83.8461 29.884 84.3501 29.596C85.5021 28.732 86.7741 26.92 88.1661 24.16C88.2621 23.944 88.3701 23.812 88.4901 23.764C88.6341 23.716 88.7181 23.752 88.7421 23.872C88.7661 23.968 88.7301 24.136 88.6341 24.376C87.8421 26.032 87.2181 27.208 86.7621 27.904C85.4661 29.992 84.0861 31.036 82.6221 31.036C81.8781 31.036 81.2661 30.76 80.7861 30.208C80.3061 29.656 80.0661 28.96 80.0661 28.12ZM87.3021 17.32C88.8861 14.488 89.6781 12.52 89.6781 11.416C89.6781 10.936 89.5941 10.696 89.4261 10.696C89.1621 10.696 88.7541 11.08 88.2021 11.848C87.6741 12.616 86.7741 14.44 85.5021 17.32H87.3021ZM86.8341 18.112H85.1421C84.8541 18.784 84.2061 20.38 83.1981 22.9C84.4941 21.556 85.7061 19.96 86.8341 18.112ZM95.7691 7.24C95.7691 8.296 95.3971 9.184 94.6531 9.904C93.9331 10.6 93.0931 11.104 92.1331 11.416C92.0371 11.464 91.9531 11.488 91.8811 11.488C91.8091 11.488 91.7731 11.428 91.7731 11.308C91.7731 11.188 91.8691 11.092 92.0611 11.02C92.7811 10.78 93.3931 10.396 93.8971 9.868C94.4011 9.316 94.7011 8.656 94.7971 7.888C94.4851 8.128 94.1371 8.248 93.7531 8.248C93.3691 8.248 93.0571 8.104 92.8171 7.816C92.5771 7.528 92.4931 7.18 92.5651 6.772C92.6131 6.364 92.8051 6.016 93.1411 5.728C93.5011 5.44 93.8971 5.296 94.3291 5.296C94.7851 5.296 95.1331 5.488 95.3731 5.872C95.6371 6.256 95.7691 6.712 95.7691 7.24ZM96.9644 30.316C97.2764 30.364 97.4924 30.388 97.6124 30.388C98.5724 30.388 99.5204 29.824 100.456 28.696C100.96 28.072 101.86 26.5 103.156 23.98C103.204 23.86 103.288 23.8 103.408 23.8C103.624 23.776 103.732 23.86 103.732 24.052C103.732 24.1 103.672 24.244 103.552 24.484C103.456 24.7 103.36 24.928 103.264 25.168C103.168 25.384 103.012 25.708 102.796 26.14C102.58 26.572 102.388 26.92 102.22 27.184C102.076 27.448 101.884 27.772 101.644 28.156C101.404 28.54 101.164 28.84 100.924 29.056L100.168 29.848C99.7604 30.256 99.2804 30.544 98.7284 30.712C97.8404 31 96.9764 31.024 96.1364 30.784C95.5844 31.024 95.0924 31.144 94.6604 31.144C92.9564 31.144 91.9244 30.472 91.5644 29.128C91.4924 28.816 91.4564 28.444 91.4564 28.012C91.4564 27.556 91.6004 27.124 91.8884 26.716C92.2004 26.308 92.5244 26.092 92.8604 26.068C94.0844 23.74 95.1284 21.64 95.9924 19.768C96.9524 17.728 98.0684 16.708 99.3404 16.708C99.6764 16.708 100 16.792 100.312 16.96C100.648 17.104 100.768 17.272 100.672 17.464C100.6 17.656 100.432 17.692 100.168 17.572C99.9044 17.452 99.6764 17.392 99.4844 17.392C99.2924 17.392 99.1244 17.428 98.9804 17.5C98.1644 17.884 97.7564 18.712 97.7564 19.984C97.7564 20.656 97.8524 21.208 98.0444 21.64C98.2364 22.072 98.4524 22.54 98.6924 23.044C99.2444 24.292 99.5204 25.312 99.5204 26.104C99.5204 26.896 99.2684 27.676 98.7644 28.444C98.2604 29.212 97.6604 29.836 96.9644 30.316ZM95.7404 30.064C96.7964 29.248 97.3244 27.928 97.3244 26.104C97.3244 25.36 97.2404 24.34 97.0724 23.044C96.9044 21.748 96.8204 20.872 96.8204 20.416C96.8204 19.96 96.8324 19.648 96.8564 19.48C95.0324 23.128 93.9044 25.348 93.4724 26.14C93.9764 26.14 94.2284 26.5 94.2284 27.22C94.2284 28.636 94.7324 29.584 95.7404 30.064ZM93.0404 29.092C93.0404 29.236 93.0524 29.392 93.0764 29.56C93.2684 30.208 93.7124 30.532 94.4084 30.532C94.6964 30.532 94.9364 30.484 95.1284 30.388C94.2404 29.836 93.7604 28.936 93.6884 27.688C93.2564 28.12 93.0404 28.588 93.0404 29.092ZM111.136 28.912C111.136 27.88 111.58 26.632 112.468 25.168C112.084 25.168 111.976 24.976 112.144 24.592L112.792 23.332C113.608 21.772 114.28 20.452 114.808 19.372C115.048 18.868 115.516 18.616 116.212 18.616H118.408C117.544 19.24 116.668 20.452 115.78 22.252C114.916 24.028 114.244 25.432 113.764 26.464C113.284 27.472 113.044 28.24 113.044 28.768C113.044 29.296 113.128 29.668 113.296 29.884C113.488 30.1 113.74 30.208 114.052 30.208C114.508 30.208 115.144 29.728 115.96 28.768C117.232 27.28 119.02 24.148 121.324 19.372C121.588 18.868 122.056 18.616 122.728 18.616H124.672C124.144 19.024 123.724 19.444 123.412 19.876C123.124 20.308 122.716 21.076 122.188 22.18C120.748 25.06 119.944 26.968 119.776 27.904C119.704 28.24 119.668 28.552 119.668 28.84C119.668 29.608 119.932 30.016 120.46 30.064C121.756 30.064 123.352 28.06 125.248 24.052C125.392 23.716 125.536 23.584 125.68 23.656C125.824 23.728 125.896 23.824 125.896 23.944C125.896 24.064 125.788 24.34 125.572 24.772C125.356 25.204 125.14 25.624 124.924 26.032C124.732 26.44 124.42 27.004 123.988 27.724C123.58 28.42 123.196 28.972 122.836 29.38C121.9 30.436 120.976 30.964 120.064 30.964C119.176 30.964 118.564 30.568 118.228 29.776C118.084 29.416 118.012 28.96 118.012 28.408C118.012 27.856 118.132 27.172 118.372 26.356C116.62 29.428 115 30.964 113.512 30.964C112.216 30.964 111.46 30.424 111.244 29.344C111.172 29.224 111.136 29.08 111.136 28.912ZM136.063 21.208C136.063 22.264 135.787 23.428 135.235 24.7C134.683 25.972 133.915 27.196 132.931 28.372C131.971 29.548 130.795 30.352 129.403 30.784C128.875 30.928 128.263 31 127.567 31C126.895 31 126.151 30.784 125.335 30.352L121.915 38.884C121.555 39.652 121.219 40.156 120.907 40.396C120.595 40.636 120.295 40.756 120.007 40.756C119.719 40.756 119.551 40.756 119.503 40.756C119.431 40.756 119.215 40.72 118.855 40.648C118.471 40.576 118.183 40.552 117.991 40.576C118.519 40.072 119.863 37.672 122.023 33.376C124.159 29.104 125.371 26.224 125.659 24.736C125.395 25.12 125.143 25.324 124.903 25.348C124.759 25.348 124.759 25.216 124.903 24.952C125.047 24.664 125.287 24.124 125.623 23.332C126.055 22.3 126.271 21.352 126.271 20.488C126.271 19.6 126.103 19.084 125.767 18.94C127.207 18.7 128.047 18.592 128.287 18.616C128.527 18.616 128.671 18.712 128.719 18.904C128.791 19.096 128.827 19.312 128.827 19.552C128.827 21.016 128.491 22.648 127.819 24.448L128.539 23.296C129.403 21.904 130.027 21.004 130.411 20.596C130.819 20.188 131.251 19.768 131.707 19.336C132.403 18.664 133.075 18.328 133.723 18.328C133.915 18.328 134.095 18.352 134.263 18.4C135.463 18.712 136.063 19.648 136.063 21.208ZM134.335 20.848C134.335 20.464 134.251 20.116 134.083 19.804C133.939 19.468 133.699 19.3 133.363 19.3C132.523 19.3 131.539 20.08 130.411 21.64C129.307 23.2 127.711 25.924 125.623 29.812C125.935 30.124 126.367 30.28 126.919 30.28C127.471 30.28 128.251 29.86 129.259 29.02C130.867 27.676 132.211 26.008 133.291 24.016C133.987 22.72 134.335 21.664 134.335 20.848ZM139.445 30.28C139.445 31.36 139.049 32.284 138.257 33.052C137.489 33.82 136.637 34.36 135.701 34.672C135.605 34.72 135.521 34.744 135.449 34.744C135.377 34.744 135.341 34.684 135.341 34.564C135.341 34.444 135.437 34.348 135.629 34.276C136.349 34.036 136.961 33.64 137.465 33.088C137.969 32.56 138.269 31.912 138.365 31.144C138.053 31.384 137.705 31.504 137.321 31.504C136.937 31.504 136.625 31.36 136.385 31.072C136.145 30.784 136.061 30.436 136.133 30.028C136.181 29.62 136.373 29.272 136.709 28.984C137.069 28.696 137.477 28.552 137.933 28.552C138.389 28.552 138.749 28.72 139.013 29.056C139.301 29.368 139.445 29.776 139.445 30.28ZM18.852 66.208C18.852 67.264 18.576 68.428 18.024 69.7C17.472 70.972 16.704 72.196 15.72 73.372C14.76 74.548 13.584 75.352 12.192 75.784C11.664 75.928 11.052 76 10.356 76C9.684 76 8.94 75.784 8.124 75.352L4.704 83.884C4.344 84.652 4.008 85.156 3.696 85.396C3.384 85.636 3.084 85.756 2.796 85.756C2.508 85.756 2.34 85.756 2.292 85.756C2.22 85.756 2.004 85.72 1.644 85.648C1.26 85.576 0.972 85.552 0.78 85.576C1.308 85.072 2.652 82.672 4.812 78.376C6.948 74.104 8.16 71.224 8.448 69.736C8.184 70.12 7.932 70.324 7.692 70.348C7.548 70.348 7.548 70.216 7.692 69.952C7.836 69.664 8.076 69.124 8.412 68.332C8.844 67.3 9.06 66.352 9.06 65.488C9.06 64.6 8.892 64.084 8.556 63.94C9.996 63.7 10.836 63.592 11.076 63.616C11.316 63.616 11.46 63.712 11.508 63.904C11.58 64.096 11.616 64.312 11.616 64.552C11.616 66.016 11.28 67.648 10.608 69.448L11.328 68.296C12.192 66.904 12.816 66.004 13.2 65.596C13.608 65.188 14.04 64.768 14.496 64.336C15.192 63.664 15.864 63.328 16.512 63.328C16.704 63.328 16.884 63.352 17.052 63.4C18.252 63.712 18.852 64.648 18.852 66.208ZM17.124 65.848C17.124 65.464 17.04 65.116 16.872 64.804C16.728 64.468 16.488 64.3 16.152 64.3C15.312 64.3 14.328 65.08 13.2 66.64C12.096 68.2 10.5 70.924 8.412 74.812C8.724 75.124 9.156 75.28 9.708 75.28C10.26 75.28 11.04 74.86 12.048 74.02C13.656 72.676 15 71.008 16.08 69.016C16.776 67.72 17.124 66.664 17.124 65.848ZM18.8858 73.912C18.8858 72.88 19.3298 71.632 20.2178 70.168C19.8338 70.168 19.7258 69.976 19.8938 69.592L20.5418 68.332C21.3578 66.772 22.0298 65.452 22.5578 64.372C22.7978 63.868 23.2658 63.616 23.9618 63.616H26.1578C25.2938 64.24 24.4178 65.452 23.5298 67.252C22.6658 69.028 21.9938 70.432 21.5138 71.464C21.0338 72.472 20.7938 73.24 20.7938 73.768C20.7938 74.296 20.8778 74.668 21.0458 74.884C21.2378 75.1 21.4898 75.208 21.8018 75.208C22.2578 75.208 22.8938 74.728 23.7098 73.768C24.9818 72.28 26.7698 69.148 29.0738 64.372C29.3378 63.868 29.8058 63.616 30.4778 63.616H32.4218C31.8938 64.024 31.4738 64.444 31.1618 64.876C30.8738 65.308 30.4658 66.076 29.9378 67.18C28.4978 70.06 27.6938 71.968 27.5258 72.904C27.4538 73.24 27.4178 73.552 27.4178 73.84C27.4178 74.608 27.6818 75.016 28.2098 75.064C29.5058 75.064 31.1018 73.06 32.9978 69.052C33.1418 68.716 33.2858 68.584 33.4298 68.656C33.5738 68.728 33.6458 68.824 33.6458 68.944C33.6458 69.064 33.5378 69.34 33.3218 69.772C33.1058 70.204 32.8898 70.624 32.6738 71.032C32.4818 71.44 32.1698 72.004 31.7378 72.724C31.3298 73.42 30.9458 73.972 30.5858 74.38C29.6498 75.436 28.7258 75.964 27.8138 75.964C26.9258 75.964 26.3138 75.568 25.9778 74.776C25.8338 74.416 25.7618 73.96 25.7618 73.408C25.7618 72.856 25.8818 72.172 26.1218 71.356C24.3698 74.428 22.7498 75.964 21.2618 75.964C19.9658 75.964 19.2098 75.424 18.9938 74.344C18.9218 74.224 18.8858 74.08 18.8858 73.912ZM43.8129 66.208C43.8129 67.264 43.5369 68.428 42.9849 69.7C42.4329 70.972 41.6649 72.196 40.6809 73.372C39.7209 74.548 38.5449 75.352 37.1529 75.784C36.6249 75.928 36.0129 76 35.3169 76C34.6449 76 33.9009 75.784 33.0849 75.352L29.6649 83.884C29.3049 84.652 28.9689 85.156 28.6569 85.396C28.3449 85.636 28.0449 85.756 27.7569 85.756C27.4689 85.756 27.3009 85.756 27.2529 85.756C27.1809 85.756 26.9649 85.72 26.6049 85.648C26.2209 85.576 25.9329 85.552 25.7409 85.576C26.2689 85.072 27.6129 82.672 29.7729 78.376C31.9089 74.104 33.1209 71.224 33.4089 69.736C33.1449 70.12 32.8929 70.324 32.6529 70.348C32.5089 70.348 32.5089 70.216 32.6529 69.952C32.7969 69.664 33.0369 69.124 33.3729 68.332C33.8049 67.3 34.0209 66.352 34.0209 65.488C34.0209 64.6 33.8529 64.084 33.5169 63.94C34.9569 63.7 35.7969 63.592 36.0369 63.616C36.2769 63.616 36.4209 63.712 36.4689 63.904C36.5409 64.096 36.5769 64.312 36.5769 64.552C36.5769 66.016 36.2409 67.648 35.5689 69.448L36.2889 68.296C37.1529 66.904 37.7769 66.004 38.1609 65.596C38.5689 65.188 39.0009 64.768 39.4569 64.336C40.1529 63.664 40.8249 63.328 41.4729 63.328C41.6649 63.328 41.8449 63.352 42.0129 63.4C43.2129 63.712 43.8129 64.648 43.8129 66.208ZM42.0849 65.848C42.0849 65.464 42.0009 65.116 41.8329 64.804C41.6889 64.468 41.4489 64.3 41.1129 64.3C40.2729 64.3 39.2889 65.08 38.1609 66.64C37.0569 68.2 35.4609 70.924 33.3729 74.812C33.6849 75.124 34.1169 75.28 34.6689 75.28C35.2209 75.28 36.0009 74.86 37.0089 74.02C38.6169 72.676 39.9609 71.008 41.0409 69.016C41.7369 67.72 42.0849 66.664 42.0849 65.848ZM56.8067 59.116C57.6707 58.012 58.1027 57.016 58.1027 56.128C58.1027 55.408 57.6947 54.856 56.8787 54.472C56.5187 54.328 56.1827 54.256 55.8707 54.256C55.5587 54.256 55.1987 54.28 54.7907 54.328C54.3827 54.352 53.8667 54.52 53.2427 54.832C52.6187 55.144 52.1147 55.528 51.7307 55.984C51.3467 56.416 51.1547 56.812 51.1547 57.172C51.1547 57.244 51.1547 57.304 51.1547 57.352C51.2747 56.896 51.6947 56.464 52.4147 56.056C52.8227 55.864 53.1587 55.768 53.4227 55.768C53.6867 55.768 53.9027 55.816 54.0707 55.912C54.4787 56.128 54.6827 56.536 54.6827 57.136C54.6827 57.736 54.4187 58.24 53.8907 58.648C53.3627 59.056 52.8347 59.26 52.3067 59.26C51.4907 59.26 50.9507 58.924 50.6867 58.252C50.5667 58.012 50.5067 57.724 50.5067 57.388C50.5067 57.052 50.5907 56.644 50.7587 56.164C51.0947 55.42 51.8627 54.7 53.0627 54.004C54.6227 53.092 56.0387 52.636 57.3107 52.636C58.7747 52.636 59.8187 53.176 60.4427 54.256C60.6107 54.568 60.6947 54.916 60.6947 55.3C60.6947 56.644 59.9027 58.216 58.3187 60.016C57.7667 60.64 56.8187 61.612 55.4747 62.932C54.1307 64.228 53.0627 65.404 52.2707 66.46C51.4787 67.516 50.8067 68.776 50.2547 70.24C50.1587 70.456 50.0027 70.528 49.7867 70.456C49.5947 70.384 49.5227 70.228 49.5707 69.988C49.7627 69.148 50.1707 68.188 50.7947 67.108C51.4187 66.028 51.9467 65.2 52.3787 64.624C52.8107 64.024 53.6147 63.016 54.7907 61.6C55.9667 60.16 56.6387 59.332 56.8067 59.116ZM49.7147 76.072C49.3787 76.36 49.0067 76.504 48.5987 76.504C48.1907 76.504 47.8787 76.372 47.6627 76.108C47.4467 75.868 47.3387 75.652 47.3387 75.46C47.3387 74.812 47.5307 74.332 47.9147 74.02C48.2987 73.708 48.6947 73.552 49.1027 73.552C49.5107 73.552 49.8227 73.684 50.0387 73.948C50.2547 74.188 50.3627 74.404 50.3627 74.596C50.3627 74.788 50.3387 75.016 50.2907 75.28C50.2427 75.52 50.0507 75.784 49.7147 76.072Z" fill="black"/>
</svg>
